<?xml version="1.0" standalone="no"?>
<!DOCTYPE svg PUBLIC "-//W3C//DTD SVG 20010904//EN"
 "http://www.w3.org/TR/2001/REC-SVG-20010904/DTD/svg10.dtd">
<svg version="1.0" xmlns="http://www.w3.org/2000/svg"
 width="752.000000pt" height="402.000000pt" viewBox="0 0 752.000000 402.000000"
 preserveAspectRatio="xMidYMid meet">

<g transform="translate(0.000000,402.000000) scale(0.100000,-0.100000)"
 stroke="none">
<path d="M4730 3862 c-114 -18 -282 -142 -328 -242 -88 -192 -102 -217 -148
-262 -84 -81 -212 -128 -347 -128 l-46 0 -10 58 c-6 31 -26 86 -44 121 -50 98
-255 297 -280 272 -5 -5 -2 -19 7 -33 21 -32 44 -330 28 -368 -7 -19 -28 -32
-88 -54 -44 -16 -86 -34 -94 -40 -8 -7 -28 -18 -45 -26 -51 -26 -120 -102
-156 -175 -28 -58 -34 -81 -34 -135 0 -56 7 -79 46 -165 l46 -100 -10 -95 c-5
-52 -14 -97 -18 -100 -12 -8 -59 -151 -59 -178 0 -13 -4 -31 -10 -41 -7 -13
-3 -27 15 -54 14 -20 25 -41 25 -46 0 -6 4 -11 8 -11 13 0 32 -47 32 -80 0
-62 53 -134 108 -146 27 -6 75 -25 120 -46 26 -13 76 -89 90 -138 5 -19 16
-71 22 -115 7 -44 17 -86 23 -92 6 -9 38 -13 93 -13 67 0 88 4 102 18 22 22
55 89 82 169 16 45 36 76 72 112 44 44 56 50 111 59 138 22 233 -15 283 -109
7 -15 49 -56 92 -93 l79 -67 -3 -47 c-17 -230 -26 -334 -34 -377 -5 -27 -17
-88 -25 -133 -23 -121 -2 -172 69 -172 17 0 40 14 67 42 l40 42 -3 -50 c-3
-44 -1 -49 17 -46 21 3 61 44 100 103 13 20 29 42 37 50 35 37 72 96 110 174
38 80 67 113 55 63 -37 -151 -42 -187 -36 -241 11 -97 44 -147 96 -147 42 0
128 36 157 65 23 23 86 115 105 153 7 13 23 27 37 32 l24 10 0 381 c0 432 -3
416 80 462 66 37 123 36 204 -3 33 -16 76 -43 95 -60 24 -22 44 -30 70 -30 45
0 41 -2 180 116 93 80 192 96 283 47 29 -16 56 -40 65 -58 16 -31 65 -97 94
-126 26 -26 59 -125 59 -177 0 -70 -26 -157 -61 -209 -18 -25 -38 -66 -46 -92
-14 -50 -19 -59 -101 -231 -30 -63 -63 -141 -72 -172 -17 -56 -17 -57 2 -75
17 -16 43 -18 199 -21 l179 -3 37 41 c37 41 50 67 85 175 66 207 104 320 158
479 49 141 61 188 57 220 -5 40 -38 145 -57 178 -5 9 -13 36 -16 60 -4 24 -15
59 -24 78 -17 34 -17 38 5 125 21 84 104 347 145 460 10 28 22 65 25 83 6 28
10 32 28 26 37 -11 66 -33 82 -63 13 -26 13 -33 0 -58 -25 -48 -37 -133 -33
-227 4 -75 10 -104 37 -166 31 -70 93 -160 110 -160 10 0 28 40 57 127 32 97
43 173 33 231 -9 55 -38 155 -48 162 -9 7 -29 41 -42 70 -52 118 -106 212
-144 252 -41 43 -52 48 -136 67 -50 12 -100 21 -113 21 -12 0 -31 7 -42 15
-12 8 -43 23 -70 34 -27 10 -96 42 -154 69 -58 27 -188 89 -290 136 -102 48
-203 97 -225 109 -75 40 -90 47 -330 163 -132 63 -330 160 -440 214 -110 54
-228 109 -262 124 -67 28 -167 39 -243 28z"/>
<path d="M945 3329 c-335 -259 -613 -476 -617 -482 -4 -7 -8 -29 -8 -50 0 -70
72 -111 127 -72 l22 16 3 -718 c3 -713 3 -718 24 -758 28 -51 68 -92 116 -116
36 -18 74 -19 978 -19 934 0 941 0 982 21 48 25 82 59 112 114 21 40 21 45 24
758 l3 718 22 -16 c55 -39 127 2 127 72 0 21 -4 43 -8 50 -4 7 -282 224 -617
482 -539 416 -614 471 -645 471 -31 0 -108 -57 -645 -471z m1128 -94 l467
-360 0 -763 0 -763 -25 -24 -24 -25 -901 0 -901 0 -24 25 -25 24 0 763 0 763
468 362 c257 199 474 361 482 360 9 -1 226 -164 483 -362z"/>
<path d="M1451 2704 c-134 -29 -327 -148 -357 -221 -12 -28 -12 -38 0 -67 30
-72 85 -75 161 -6 96 87 207 130 335 130 128 0 239 -43 335 -130 76 -69 131
-66 161 6 21 50 1 89 -79 152 -161 128 -364 178 -556 136z"/>
<path d="M1490 2415 c-72 -21 -128 -55 -174 -106 -33 -36 -37 -46 -32 -77 13
-82 84 -101 154 -41 91 78 213 78 304 0 70 -60 141 -41 155 43 5 35 3 40 -49
90 -92 89 -235 125 -358 91z"/>
<path d="M1528 2034 c-37 -20 -58 -63 -58 -120 0 -39 5 -51 33 -79 19 -19 46
-37 60 -40 40 -10 76 2 114 40 28 28 33 40 33 79 0 26 -7 60 -15 76 -28 55
-109 76 -167 44z"/>
<path d="M1691 836 c-28 -16 -50 -52 -51 -84 0 -15 -7 -26 -20 -29 -16 -4 -20
-14 -20 -49 0 -37 3 -44 20 -44 19 0 20 -7 20 -125 l0 -125 60 0 60 0 0 125 0
125 40 0 40 0 0 45 0 45 -40 0 c-33 0 -40 3 -40 20 0 17 7 20 40 20 40 0 40 0
40 39 0 26 -5 41 -16 45 -27 11 -108 6 -133 -8z"/>
<path d="M1954 840 c-30 -12 -54 -49 -54 -83 0 -20 -6 -30 -20 -34 -16 -4 -20
-14 -20 -49 0 -37 3 -44 20 -44 19 0 20 -7 20 -125 l0 -125 60 0 60 0 0 125 0
125 35 0 c35 0 35 0 35 45 0 44 0 45 -33 45 -19 0 -37 3 -40 7 -14 13 16 33
50 33 34 0 34 0 27 38 -4 20 -9 40 -11 45 -6 10 -103 8 -129 -3z"/>
<path d="M2510 615 l0 -235 60 0 60 0 0 235 0 235 -60 0 -60 0 0 -235z"/>
<path d="M760 604 l0 -226 153 4 c169 4 204 14 232 68 26 51 20 89 -24 130
l-38 36 28 32 c55 61 26 145 -59 170 -22 7 -96 12 -166 12 l-126 0 0 -226z
m244 110 c38 -37 7 -64 -73 -64 l-51 0 0 40 0 40 54 0 c36 0 60 -5 70 -16z
m26 -173 c13 -25 13 -27 -6 -45 -11 -11 -35 -16 -80 -16 l-64 0 0 40 0 40 70
0 c58 0 71 -3 80 -19z"/>
<path d="M3314 771 c-45 -21 -74 -68 -74 -121 0 -43 52 -95 111 -109 93 -24
114 -35 114 -61 0 -22 -5 -25 -45 -28 -32 -2 -59 4 -93 21 l-47 24 -30 -37
-30 -38 23 -15 c64 -42 191 -60 254 -36 66 25 100 89 82 154 -13 46 -45 69
-126 90 -80 21 -113 46 -93 69 17 22 78 20 123 -3 l38 -19 24 36 c29 43 23 54
-42 76 -62 21 -139 20 -189 -3z"/>
<path d="M5140 575 l0 -215 55 0 55 0 0 85 0 85 80 0 80 0 0 -85 0 -85 55 0
55 0 0 215 0 215 -55 0 -55 0 0 -80 0 -80 -80 0 -80 0 0 80 0 80 -55 0 -55 0
0 -215z"/>
<path d="M4890 730 c0 -33 -3 -40 -20 -40 -17 0 -20 -7 -20 -45 0 -38 3 -45
19 -45 17 0 19 -10 23 -96 3 -91 5 -97 31 -120 20 -17 40 -24 70 -24 76 0 87
7 87 54 0 41 0 41 -37 41 l-38 0 -3 73 -3 72 41 0 40 0 0 45 0 45 -40 0 -40 0
0 40 0 40 -55 0 -55 0 0 -40z"/>
<path d="M1210 600 c0 -157 11 -193 66 -216 42 -17 85 -11 127 18 27 19 27 19
27 -1 0 -19 6 -21 60 -21 l60 0 0 175 0 175 -60 0 -60 0 0 -108 c0 -93 -3
-111 -18 -125 -23 -21 -46 -22 -66 -1 -13 12 -16 39 -16 125 l0 109 -60 0 -60
0 0 -130z"/>
<path d="M2178 718 c-41 -11 -44 -18 -27 -67 8 -23 16 -31 27 -26 35 13 100
17 119 6 11 -5 23 -20 26 -32 5 -20 3 -20 -42 -14 -100 14 -171 -30 -171 -105
0 -90 104 -136 188 -84 19 13 22 13 22 -1 0 -12 13 -15 60 -15 l60 0 0 129 c0
116 -2 131 -22 161 -13 18 -39 39 -58 46 -42 15 -130 16 -182 2z m148 -203
c10 -25 -23 -65 -54 -65 -48 0 -67 34 -36 64 20 21 83 21 90 1z"/>
<path d="M2800 719 c-32 -13 -78 -57 -96 -91 -17 -32 -18 -105 -3 -145 29 -78
129 -125 220 -103 88 21 141 84 142 169 1 103 -68 173 -177 178 -33 2 -72 -2
-86 -8z m125 -114 c27 -26 32 -70 12 -96 -47 -61 -131 -32 -131 46 0 70 71 99
119 50z"/>
<path d="M3640 525 l0 -165 55 0 55 0 0 98 c0 107 13 142 54 142 40 0 46 -18
46 -132 l0 -108 55 0 55 0 0 98 c0 107 13 142 54 142 40 0 46 -18 46 -132 l0
-108 56 0 56 0 -4 141 c-3 140 -3 141 -31 165 -39 34 -114 34 -154 0 l-28 -24
-28 24 c-36 31 -103 33 -140 4 l-26 -20 -6 20 c-5 17 -15 20 -61 20 l-54 0 0
-165z"/>
<path d="M4284 679 c-31 -9 -32 -10 -22 -48 9 -37 12 -39 35 -30 60 23 133 3
133 -36 0 -11 -15 -14 -62 -13 -77 2 -121 -18 -137 -62 -14 -41 5 -100 39
-117 34 -17 102 -16 126 2 25 19 34 19 34 0 0 -12 13 -15 55 -15 l55 0 0 113
c0 131 -14 172 -70 199 -38 20 -132 23 -186 7z m134 -178 c22 -13 10 -54 -20
-71 -33 -18 -61 -6 -66 30 -6 39 49 65 86 41z"/>
<path d="M4610 525 l0 -165 55 0 55 0 0 81 c0 76 2 82 29 110 16 16 39 29 50
29 19 0 21 6 21 55 0 49 -2 55 -21 55 -11 0 -34 -13 -50 -29 l-29 -29 0 29 c0
29 -1 29 -55 29 l-55 0 0 -165z"/>
<path d="M5685 676 c-42 -18 -83 -69 -91 -112 -14 -73 10 -134 70 -178 40 -30
162 -30 202 0 105 78 102 208 -6 282 -38 26 -125 30 -175 8z m132 -98 c48 -45
14 -128 -52 -128 -41 0 -69 31 -69 75 0 68 71 100 121 53z"/>
<path d="M6000 525 l0 -165 55 0 55 0 0 103 c0 88 3 106 18 120 23 21 46 22
66 1 13 -12 16 -38 16 -120 l0 -104 55 0 55 0 0 98 c0 104 13 142 50 142 41 0
50 -25 50 -136 l0 -104 55 0 55 0 0 125 c0 172 -18 205 -113 205 -29 0 -53 -7
-70 -20 -14 -11 -28 -20 -32 -20 -4 0 -18 9 -32 20 -38 30 -103 27 -142 -6
l-31 -26 0 26 c0 25 -2 26 -55 26 l-55 0 0 -165z"/>
<path d="M6660 668 c-66 -46 -91 -151 -52 -228 43 -87 211 -109 272 -35 13 16
12 20 -15 41 -26 20 -31 22 -45 9 -26 -24 -96 -19 -114 7 -9 12 -16 26 -16 30
0 5 50 8 110 8 l110 0 0 33 c-1 49 -35 114 -72 137 -47 29 -134 28 -178 -2z
m124 -69 c44 -35 34 -49 -34 -49 -66 0 -77 13 -40 50 25 25 41 25 74 -1z"/>
</g>
</svg>
